<svg width="107" height="107" viewBox="0 0 107 107" fill="none" xmlns="http://www.w3.org/2000/svg">
<g clip-path="url(#clip0_778_892)">
<path d="M90.5965 0H15.9876C7.1579 0 0 7.1579 0 15.9876V90.5965C0 99.4262 7.1579 106.584 15.9876 106.584H90.5965C99.4262 106.584 106.584 99.4262 106.584 90.5965V15.9876C106.584 7.1579 99.4262 0 90.5965 0Z" fill="white"/>
<path d="M74.3572 61.808C70.8182 61.808 67.4875 60.3091 64.4898 57.8735L65.2184 54.4179L65.2392 54.293C65.9054 50.6291 67.9663 44.4673 74.3572 44.4673C79.1451 44.4673 83.0379 48.3601 83.0379 53.148C83.0379 57.936 79.1451 61.808 74.3572 61.808ZM74.3572 35.6824C66.1968 35.6824 59.8892 40.97 57.3079 49.6924C53.3942 43.8011 50.4174 36.7441 48.6895 30.7903H39.9047V53.6268C39.9047 58.1442 36.2409 61.808 31.7235 61.808C27.2062 61.808 23.5424 58.1442 23.5424 53.6268V30.7695H14.7783V53.606C14.7783 62.9529 22.3766 70.6345 31.7235 70.6345C41.0705 70.6345 48.6687 62.9529 48.6687 53.606V49.7756C50.3757 53.3354 52.4575 56.9368 54.9972 60.101L49.6263 85.3731H58.5985L62.4914 67.0539C65.9054 69.2397 69.819 70.6137 74.3155 70.6137C83.9331 70.6137 91.7603 62.7448 91.7603 53.1064C91.7812 43.5097 83.9747 35.6824 74.3572 35.6824Z" fill="#2F2C2C"/>
</g>
<defs>
<clipPath id="clip0_778_892">
<rect width="106.584" height="106.584" fill="white"/>
</clipPath>
</defs>
</svg>
